<svg width="404" height="1371" viewBox="0 0 404 1371" fill="none" xmlns="http://www.w3.org/2000/svg">
<path d="M1004.04 1291.65C883.75 1288.31 762.82 1255.58 651.533 1191.33C292.702 984.161 169.837 525.621 377.008 166.791C409.958 109.72 449.162 59.1148 493.195 14.1502" stroke="#649CC8" stroke-opacity="0.2" stroke-width="2" stroke-miterlimit="10" stroke-linecap="round" stroke-linejoin="round"/>
<path opacity="0.2" d="M263.52 963.333C349.731 963.333 419.618 893.445 419.618 807.234C419.618 721.023 349.731 651.135 263.52 651.135C177.309 651.135 107.421 721.023 107.421 807.234C107.421 893.445 177.309 963.333 263.52 963.333Z" fill="#78AE9F"/>
<path d="M342.345 978C302.394 978 270.268 1010.54 270.268 1050.08C270.268 1090.03 302.394 1122.15 342.345 1122.15C382.297 1122.15 414.423 1090.03 414.423 1050.08C414.834 1010.54 382.297 978 342.345 978ZM342.345 1104.44C312.279 1104.44 287.978 1080.14 287.978 1050.08C287.978 1020.01 312.279 995.71 342.345 995.71C372.412 995.71 396.712 1020.01 396.712 1050.08C396.712 1080.14 372.412 1104.44 342.345 1104.44Z" fill="#D36D2D" fill-opacity="0.2"/>
<path d="M342.574 1095.61C367.595 1095.61 387.879 1075.33 387.879 1050.31C387.879 1025.28 367.595 1005 342.574 1005C317.552 1005 297.268 1025.28 297.268 1050.31C297.268 1075.33 317.552 1095.61 342.574 1095.61Z" fill="#C13F20" fill-opacity="0.2"/>
<path opacity="0.2" d="M261.048 1055.59C396.393 1055.59 506.111 945.874 506.111 810.529C506.111 675.185 396.393 565.467 261.048 565.467C125.704 565.467 15.9854 675.185 15.9854 810.529C15.9854 945.874 125.704 1055.59 261.048 1055.59Z" stroke="#DD9F32" stroke-miterlimit="10"/>
</svg>
