<svg width="292" height="679" viewBox="0 0 292 679" fill="none" xmlns="http://www.w3.org/2000/svg">
<path d="M-68.1 362.2L-71 359.3L288.3 0L291.2 2.9L-68.1 362.2Z" fill="#3F4953"/>
<path d="M-68.1 382L-71 379.1L288.3 19.8L291.2 22.7L-68.1 382Z" fill="#3F4953"/>
<path d="M-68.1 401.8L-71 398.9L288.3 39.6L291.2 42.5L-68.1 401.8Z" fill="#3F4953"/>
<path d="M-68.1 421.6L-71 418.7L288.3 59.4L291.2 62.3L-68.1 421.6Z" fill="#3F4953"/>
<path d="M-68.1 441.4L-71 438.5L288.3 79.2L291.2 82.1L-68.1 441.4Z" fill="#3F4953"/>
<path d="M-68.1 461.2L-71 458.3L288.3 99L291.2 101.9L-68.1 461.2Z" fill="#3F4953"/>
<path d="M-68.1 481L-71 478.1L288.3 118.8L291.2 121.7L-68.1 481Z" fill="#3F4953"/>
<path d="M-68.1 500.8L-71 497.9L288.3 138.6L291.2 141.5L-68.1 500.8Z" fill="#3F4953"/>
<path d="M-68.1 520.6L-71 517.7L288.3 158.4L291.2 161.3L-68.1 520.6Z" fill="#3F4953"/>
<path d="M-68.1 540.4L-71 537.5L288.3 178.2L291.2 181.1L-68.1 540.4Z" fill="#3F4953"/>
<path d="M-68.1 560.2L-71 557.3L288.3 198L291.2 200.9L-68.1 560.2Z" fill="#3F4953"/>
<path d="M-68.1 580L-71 577.1L288.3 217.8L291.2 220.7L-68.1 580Z" fill="#3F4953"/>
<path d="M-68.1 599.8L-71 596.9L288.3 237.6L291.2 240.5L-68.1 599.8Z" fill="#3F4953"/>
<path d="M-68.1 619.6L-71 616.7L288.3 257.4L291.2 260.3L-68.1 619.6Z" fill="#3F4953"/>
<path d="M-68.1 639.4L-71 636.5L288.3 277.2L291.2 280.1L-68.1 639.4Z" fill="#3F4953"/>
<path d="M-68.1 659.2L-71 656.3L288.3 297L291.2 299.9L-68.1 659.2Z" fill="#3F4953"/>
<path d="M-68.1 679L-71 676.1L288.3 316.8L291.2 319.7L-68.1 679Z" fill="#3F4953"/>
</svg>
