<svg width="40" height="40" viewBox="0 0 40 40" fill="none" xmlns="http://www.w3.org/2000/svg">
<path d="M34.4308 8.58972C34.6085 8.76921 34.7862 9.12818 34.7862 9.48715V28.3333C34.7862 28.6923 34.6085 29.0513 34.4308 29.2308C34.2531 29.4102 33.8977 29.5897 33.72 29.5897H7.06615C6.71077 29.5897 6.53307 29.4102 6.35538 29.2308C5.99999 29.0513 6 28.8718 6 28.3333V9.48715C6 9.12818 6.17769 8.76921 6.35538 8.58972C6.53307 8.41023 6.88846 8.23074 7.06615 8.23074H33.72C33.8977 8.41023 34.2531 8.41023 34.4308 8.58972ZM7.95461 12.359V26L15.5954 19L7.95461 12.359ZM9.90923 11.1025L20.2154 20.2564L30.6992 11.1025H9.90923ZM20.9262 22.5897H19.3269L17.3723 20.6154L10.0869 27.2564H30.1662L23.0585 20.6154L20.9262 22.5897ZM32.6539 26V12.359L24.8354 19L32.6539 26Z" fill="#DD9F32"/>
</svg>
