<svg width="40" height="40" viewBox="0 0 40 40" fill="none" xmlns="http://www.w3.org/2000/svg">
<path d="M24.9923 32.8205C24.2815 33 23.2154 33 21.9715 33C20.55 33 19.3062 33 18.0623 32.8205C16.8185 32.641 16.2854 32.4615 16.2854 32.282L17.1739 31.3846V28.3333C16.4631 28.3333 15.93 28.3333 15.2192 28.3333C14.3308 28.3333 13.4423 28.1538 12.7315 27.7949C12.0208 27.4359 11.6654 26.8974 11.4877 26.359C10.9546 25.1025 10.4215 24.2051 9.71077 23.8461C9.35539 23.4872 9 23.3077 9 23.1282C9 22.9487 9.1777 22.7692 9.71077 22.7692C10.2438 22.7692 10.7769 22.9487 11.1323 23.3077C11.4877 23.6666 11.8431 24.0256 12.1985 24.3846C12.9092 25.641 13.7977 26.1795 15.0415 26.1795C15.7523 26.1795 16.2854 26 16.9962 25.8205C17.1738 24.9231 17.5292 24.0256 18.0623 23.4872C15.7523 23.3077 13.9754 22.5897 12.7315 21.3333C11.31 20.2564 10.5992 18.1025 10.5992 15.2307C10.5992 13.4359 11.1323 12 12.3762 10.7436C12.1985 10.2051 12.0208 9.48716 12.0208 8.76921C12.0208 7.87177 12.1985 7.15382 12.5538 6.25639C12.9092 6.0769 13.62 6.25639 14.3308 6.43587C15.0415 6.61536 15.93 7.15382 16.9962 7.87177C18.24 7.5128 19.6615 7.33331 21.0831 7.33331C22.5046 7.33331 23.9262 7.5128 25.17 7.87177C26.2362 7.15382 27.1246 6.61536 27.8354 6.43587C28.5462 6.0769 29.2569 6.0769 29.6123 6.25639C29.9677 6.97433 30.1454 7.87177 30.1454 8.76921C30.1454 9.48716 29.9677 10.0256 29.79 10.7436C30.8562 12 31.5669 13.4359 31.5669 15.2307C31.5669 18.1025 30.8562 20.0769 29.4346 21.3333C28.0131 22.4102 26.2362 23.1282 24.1039 23.4872C24.8146 24.2051 25.17 25.1025 25.17 26.5384V31.0256C25.17 31.3846 25.3477 31.5641 25.7031 31.9231C25.8808 32.4615 25.7031 32.641 24.9923 32.8205ZM10.7769 23.3077C10.5992 23.1282 10.5992 23.3077 10.4215 23.3077C10.4215 23.4872 10.4215 23.4872 10.5992 23.4872C10.7769 23.4872 10.7769 23.4872 10.9546 23.4872C10.9546 23.4872 10.9546 23.3077 10.7769 23.3077ZM11.6654 24.2051C11.6654 24.0256 11.6654 24.0256 11.6654 24.2051C11.4877 23.8461 11.31 23.8461 11.1323 24.0256C10.9546 24.2051 11.1323 24.2051 11.1323 24.3846L11.31 24.5641C11.4877 24.3846 11.6654 24.3846 11.6654 24.2051ZM12.1985 24.9231C12.1985 24.7436 12.0208 24.7436 11.8431 24.7436C11.8431 24.9231 11.8431 24.9231 11.8431 25.1025C12.0208 25.282 12.1985 25.282 12.1985 25.282C12.3762 25.1025 12.3762 25.1025 12.1985 24.9231ZM13.2646 26C13.2646 25.8205 13.2646 25.8205 13.0869 25.8205L12.9092 25.641C12.7315 25.641 12.7315 25.641 12.7315 25.641C12.5538 25.8205 12.7315 25.8205 12.9092 26C13.0869 26.1795 13.2646 26.1795 13.4423 26.1795C13.2646 26.1795 13.2646 26 13.2646 26ZM14.1531 26.359C13.9754 26.359 13.7977 26.359 13.7977 26.5384C13.7977 26.7179 13.9754 26.7179 14.1531 26.8974C14.3308 26.8974 14.5085 26.8974 14.5085 26.7179C14.3308 26.5384 14.3308 26.5384 14.1531 26.359ZM15.5746 26.5384H15.3969C15.3969 26.5384 15.2192 26.5384 15.2192 26.7179L15.0415 26.8974C15.0415 26.8974 15.0415 27.0769 15.2192 27.0769H15.3969C15.3969 27.0769 15.5746 27.0769 15.5746 26.8974C15.7523 26.8974 15.7523 26.8974 15.5746 26.5384C15.7523 26.7179 15.7523 26.7179 15.5746 26.5384ZM16.6408 26.359C16.4631 26.359 16.4631 26.359 16.4631 26.359L16.2854 26.5384C16.2854 26.5384 16.2854 26.7179 16.4631 26.7179H16.6408C16.8185 26.7179 16.8185 26.7179 16.8185 26.5384L16.9962 26.359C16.9962 26.5384 16.8185 26.359 16.6408 26.359Z" fill="#DD9F32"/>
</svg>
