<svg width="40" height="40" viewBox="0 0 40 40" fill="none" xmlns="http://www.w3.org/2000/svg">
<path d="M12.5085 5.89744C13.2192 6.61539 13.3969 7.33333 13.3969 8.23077C13.3969 9.12821 13.0415 9.84616 12.5085 10.5641C11.9754 11.2821 11.0869 11.641 10.1985 11.641C9.31 11.641 8.59923 11.2821 7.88846 10.7436C7.35538 10.0256 7 9.30769 7 8.41026C7 7.51282 7.35538 6.61539 7.88846 6.07692C8.42154 5.53846 9.31 5 10.1985 5C11.0869 5 11.7977 5.35897 12.5085 5.89744ZM7.53308 13.6154H12.8638V32.1026H7.53308V13.6154ZM20.6823 14.5128C21.5708 13.9744 22.6369 13.7949 23.8808 13.7949C25.1246 13.7949 26.3685 14.1539 27.6123 14.6923C28.6785 15.2308 29.5669 16.1282 30.1 17.3846C30.8108 18.4615 31.1662 19.718 31.1662 20.9744V32.2821H26.0131V20.7949C26.0131 20.6154 25.8354 20.2564 25.6577 19.8974C25.3023 19.5385 25.1246 19.359 24.9469 19.359C24.4139 19 24.0585 18.8205 23.7031 18.8205C23.17 18.8205 22.6369 19 22.1039 19.359C21.5708 19.5385 21.0377 19.8974 20.6823 20.2564V32.1026H15.3515V13.6154H20.6823V14.5128Z" fill="#DD9F32"/>
</svg>
