<svg width="411" height="440" viewBox="0 0 411 440" fill="none" xmlns="http://www.w3.org/2000/svg">
<path d="M258.6 242.6C258.5 242.6 258.3 242.7 258.3 242.9C258.3 243 258.4 243.2 258.6 243.2C258.7 243.2 258.9 243.1 258.9 242.9C258.9 242.8 258.8 242.6 258.6 242.6Z" fill="#B3B6CF"/>
<path d="M258.6 247.5C258.5 247.5 258.3 247.6 258.3 247.8C258.3 248 258.4 248.1 258.6 248.1C258.7 248.1 258.9 248 258.9 247.8C258.9 247.6 258.7 247.5 258.6 247.5Z" fill="#B3B6CF"/>
<path d="M258.4 252.3C258.3 252.3 258.1 252.4 258.1 252.6C258.1 252.8 258.2 252.9 258.4 252.9C258.5 252.9 258.7 252.8 258.7 252.6C258.7 252.4 258.5 252.3 258.4 252.3Z" fill="#B3B6CF"/>
<path d="M257.8 257.3C257.8 257.4 257.9 257.6 258.1 257.6C258.2 257.6 258.4 257.5 258.4 257.3C258.4 257.2 258.3 257 258.1 257C257.9 257.1 257.8 257.2 257.8 257.3Z" fill="#B3B6CF"/>
<path d="M257.6 261.9C257.5 261.9 257.3 262 257.3 262.2C257.3 262.3 257.4 262.5 257.6 262.5C257.7 262.5 257.9 262.4 257.9 262.2C257.9 262 257.8 261.9 257.6 261.9Z" fill="#B3B6CF"/>
<path d="M257.1 266.6C257 266.6 256.8 266.7 256.8 266.9C256.8 267 256.9 267.2 257.1 267.2C257.2 267.2 257.4 267.1 257.4 266.9C257.3 266.8 257.2 266.6 257.1 266.6Z" fill="#B3B6CF"/>
<path d="M256.9 218.9C256.9 219 257 219.1 257.1 219.1C257.2 219.1 257.3 219 257.3 218.9C257.3 218.8 257.2 218.7 257.1 218.7C257 218.7 256.9 218.8 256.9 218.9Z" fill="#B3B6CF"/>
<path d="M257.6 223.9C257.7 223.9 257.8 223.8 257.8 223.7C257.8 223.6 257.7 223.5 257.6 223.5C257.5 223.5 257.4 223.6 257.4 223.7C257.4 223.8 257.5 223.9 257.6 223.9Z" fill="#B3B6CF"/>
<path d="M257.8 228.5C257.8 228.6 257.9 228.8 258.1 228.8C258.2 228.8 258.4 228.7 258.4 228.5C258.4 228.4 258.3 228.2 258.1 228.2C257.9 228.2 257.8 228.3 257.8 228.5Z" fill="#B3B6CF"/>
<path d="M258.1 233.3C258.1 233.4 258.2 233.6 258.4 233.6C258.5 233.6 258.7 233.5 258.7 233.3C258.7 233.2 258.6 233 258.4 233C258.2 233 258.1 233.1 258.1 233.3Z" fill="#B3B6CF"/>
<path d="M258.3 238.1C258.3 238.2 258.4 238.4 258.6 238.4C258.7 238.4 258.9 238.3 258.9 238.1C258.9 238 258.8 237.8 258.6 237.8C258.4 237.8 258.3 237.9 258.3 238.1Z" fill="#B3B6CF"/>
<path d="M264 243.1C264.11 243.1 264.2 243.01 264.2 242.9C264.2 242.79 264.11 242.7 264 242.7C263.89 242.7 263.8 242.79 263.8 242.9C263.8 243.01 263.89 243.1 264 243.1Z" fill="#B3B6CF"/>
<path d="M263.9 247.9C264.01 247.9 264.1 247.81 264.1 247.7C264.1 247.59 264.01 247.5 263.9 247.5C263.79 247.5 263.7 247.59 263.7 247.7C263.7 247.81 263.79 247.9 263.9 247.9Z" fill="#B3B6CF"/>
<path d="M263.8 252.7C263.91 252.7 264 252.61 264 252.5C264 252.39 263.91 252.3 263.8 252.3C263.69 252.3 263.6 252.39 263.6 252.5C263.6 252.61 263.69 252.7 263.8 252.7Z" fill="#B3B6CF"/>
<path d="M263.6 257.3C263.6 257.2 263.5 257.1 263.4 257.1C263.3 257.1 263.2 257.2 263.2 257.3C263.2 257.4 263.3 257.5 263.4 257.5C263.6 257.5 263.6 257.4 263.6 257.3Z" fill="#B3B6CF"/>
<path d="M263 261.9C262.9 261.9 262.8 262 262.8 262.1C262.8 262.2 262.9 262.3 263 262.3C263.1 262.3 263.2 262.2 263.2 262.1C263.2 262 263.1 261.9 263 261.9Z" fill="#B3B6CF"/>
<path d="M262.5 266.7C262.4 266.7 262.3 266.8 262.3 266.9C262.3 267 262.4 267.1 262.5 267.1C262.6 267.1 262.7 267 262.7 266.9C262.7 266.8 262.6 266.7 262.5 266.7Z" fill="#B3B6CF"/>
<path d="M262 271.7C262 271.6 261.9 271.5 261.8 271.5C261.7 271.5 261.6 271.6 261.6 271.7C261.6 271.8 261.7 271.9 261.8 271.9C261.9 271.9 262 271.8 262 271.7Z" fill="#B3B6CF"/>
<path d="M261.1 276.2C261 276.2 260.9 276.3 260.9 276.4C260.9 276.5 261 276.6 261.1 276.6C261.2 276.6 261.3 276.5 261.3 276.4C261.3 276.3 261.2 276.2 261.1 276.2Z" fill="#B3B6CF"/>
<path d="M260.4 281.2C260.4 281.1 260.3 281 260.2 281C260.1 281 260 281.1 260 281.2C260 281.3 260.1 281.4 260.2 281.4C260.3 281.4 260.4 281.3 260.4 281.2Z" fill="#B3B6CF"/>
<path d="M259.2 285.6C259.1 285.6 259 285.7 259 285.8C259 285.9 259.1 286 259.2 286C259.3 286 259.4 285.9 259.4 285.8C259.4 285.7 259.3 285.6 259.2 285.6Z" fill="#B3B6CF"/>
<path d="M258 290.7C258.11 290.7 258.2 290.61 258.2 290.5C258.2 290.39 258.11 290.3 258 290.3C257.89 290.3 257.8 290.39 257.8 290.5C257.8 290.61 257.89 290.7 258 290.7Z" fill="#B3B6CF"/>
<path d="M258 195.5C258.11 195.5 258.2 195.41 258.2 195.3C258.2 195.19 258.11 195.1 258 195.1C257.89 195.1 257.8 195.19 257.8 195.3C257.8 195.41 257.89 195.5 258 195.5Z" fill="#B3B6CF"/>
<path d="M259.2 200.1C259.3 200.1 259.4 200 259.4 199.9C259.4 199.8 259.3 199.7 259.2 199.7C259.1 199.7 259 199.8 259 199.9C259 200 259 200.1 259.2 200.1Z" fill="#B3B6CF"/>
<path d="M260.2 204.9C260.3 204.9 260.4 204.8 260.4 204.7C260.4 204.6 260.3 204.5 260.2 204.5C260.1 204.5 260 204.6 260 204.7C259.9 204.8 260 204.9 260.2 204.9Z" fill="#B3B6CF"/>
<path d="M261.1 209.2C261 209.2 260.9 209.3 260.9 209.4C260.9 209.5 261 209.6 261.1 209.6C261.2 209.6 261.3 209.5 261.3 209.4C261.3 209.3 261.2 209.2 261.1 209.2Z" fill="#B3B6CF"/>
<path d="M261.8 214.3C261.9 214.3 262 214.2 262 214.1C262 214 261.9 213.9 261.8 213.9C261.7 213.9 261.6 214 261.6 214.1C261.7 214.2 261.7 214.3 261.8 214.3Z" fill="#B3B6CF"/>
<path d="M262.5 219.1C262.61 219.1 262.7 219.01 262.7 218.9C262.7 218.79 262.61 218.7 262.5 218.7C262.39 218.7 262.3 218.79 262.3 218.9C262.3 219.01 262.39 219.1 262.5 219.1Z" fill="#B3B6CF"/>
<path d="M263 223.5C262.9 223.5 262.8 223.6 262.8 223.7C262.8 223.8 262.9 223.9 263 223.9C263.1 223.9 263.2 223.8 263.2 223.7C263.2 223.6 263.1 223.5 263 223.5Z" fill="#B3B6CF"/>
<path d="M263.5 228.7C263.6 228.7 263.7 228.6 263.7 228.5C263.7 228.4 263.6 228.3 263.5 228.3C263.4 228.3 263.3 228.4 263.3 228.5C263.3 228.6 263.3 228.7 263.5 228.7Z" fill="#B3B6CF"/>
<path d="M263.6 233.3C263.6 233.4 263.7 233.5 263.8 233.5C263.9 233.5 264 233.4 264 233.3C264 233.2 263.9 233.1 263.8 233.1C263.6 233.1 263.6 233.2 263.6 233.3Z" fill="#B3B6CF"/>
<path d="M263.9 238.3C264.01 238.3 264.1 238.21 264.1 238.1C264.1 237.99 264.01 237.9 263.9 237.9C263.79 237.9 263.7 237.99 263.7 238.1C263.7 238.21 263.79 238.3 263.9 238.3Z" fill="#B3B6CF"/>
<path d="M269.4 242.8C269.3 242.8 269.3 242.9 269.3 242.9C269.3 243 269.4 243 269.4 243L269.5 242.9C269.5 242.8 269.4 242.8 269.4 242.8Z" fill="#B3B6CF"/>
<path d="M269.3 247.6C269.2 247.6 269.2 247.7 269.2 247.7C269.2 247.8 269.3 247.8 269.3 247.8C269.4 247.8 269.4 247.7 269.4 247.7C269.4 247.6 269.4 247.6 269.3 247.6Z" fill="#B3B6CF"/>
<path d="M269.1 252.6C269.155 252.6 269.2 252.555 269.2 252.5C269.2 252.445 269.155 252.4 269.1 252.4C269.045 252.4 269 252.445 269 252.5C269 252.555 269.045 252.6 269.1 252.6Z" fill="#B3B6CF"/>
<path d="M268.8 257.2C268.7 257.2 268.7 257.3 268.7 257.3C268.7 257.4 268.8 257.4 268.8 257.4C268.9 257.4 268.9 257.3 268.9 257.3C269 257.2 268.9 257.2 268.8 257.2Z" fill="#B3B6CF"/>
<path d="M268.4 262C268.3 262 268.3 262.1 268.3 262.1L268.4 262.2C268.5 262.2 268.5 262.1 268.5 262.1C268.5 262.1 268.5 262 268.4 262Z" fill="#B3B6CF"/>
<path d="M267.9 266.8C267.8 266.8 267.8 266.9 267.8 266.9C267.8 267 267.9 267 267.9 267C268 267 268 266.9 268 266.9C268 266.8 268 266.8 267.9 266.8Z" fill="#B3B6CF"/>
<path d="M267.3 271.5C267.2 271.5 267.2 271.6 267.2 271.6C267.2 271.7 267.3 271.7 267.3 271.7C267.4 271.7 267.4 271.6 267.4 271.6L267.3 271.5Z" fill="#B3B6CF"/>
<path d="M266.5 276.6C266.61 276.6 266.7 276.51 266.7 276.4C266.7 276.29 266.61 276.2 266.5 276.2C266.39 276.2 266.3 276.29 266.3 276.4C266.3 276.51 266.39 276.6 266.5 276.6Z" fill="#B3B6CF"/>
<path d="M265.6 281C265.5 281 265.4 281.1 265.4 281.2C265.4 281.3 265.5 281.4 265.6 281.4C265.7 281.4 265.8 281.3 265.8 281.2C265.8 281.1 265.7 281 265.6 281Z" fill="#B3B6CF"/>
<path d="M264.6 285.7C264.5 285.7 264.4 285.8 264.4 285.9C264.4 286 264.5 286.1 264.6 286.1C264.7 286.1 264.8 286 264.8 285.9C264.8 285.8 264.7 285.7 264.6 285.7Z" fill="#B3B6CF"/>
<path d="M263.7 290.6C263.7 290.5 263.6 290.5 263.6 290.5C263.5 290.5 263.5 290.6 263.5 290.6C263.5 290.7 263.6 290.7 263.6 290.7L263.7 290.6Z" fill="#B3B6CF"/>
<path d="M262.3 295.1C262.2 295.1 262.2 295.2 262.2 295.2C262.2 295.3 262.3 295.3 262.3 295.3C262.4 295.3 262.4 295.2 262.4 295.2C262.5 295.1 262.4 295.1 262.3 295.1Z" fill="#B3B6CF"/>
<path d="M261 300.1C261.11 300.1 261.2 300.01 261.2 299.9C261.2 299.79 261.11 299.7 261 299.7C260.89 299.7 260.8 299.79 260.8 299.9C260.8 300.01 260.89 300.1 261 300.1Z" fill="#B3B6CF"/>
<path d="M259.6 304.3C259.5 304.3 259.4 304.4 259.4 304.5C259.4 304.6 259.5 304.7 259.6 304.7C259.7 304.7 259.8 304.6 259.8 304.5C259.8 304.3 259.7 304.3 259.6 304.3Z" fill="#B3B6CF"/>
<path d="M258 308.8C257.9 308.8 257.8 308.9 257.8 309C257.8 309.1 257.9 309.2 258 309.2C258.1 309.2 258.2 309.1 258.2 309C258.2 308.9 258.1 308.8 258 308.8Z" fill="#B3B6CF"/>
<path d="M258 176.9C258.1 176.9 258.1 176.8 258.1 176.8C258.1 176.7 258 176.7 258 176.7C257.9 176.7 257.9 176.8 257.9 176.8C257.9 176.9 257.9 176.9 258 176.9Z" fill="#B3B6CF"/>
<path d="M259.6 181.5C259.7 181.5 259.7 181.4 259.7 181.4C259.7 181.3 259.6 181.3 259.6 181.3C259.5 181.3 259.5 181.4 259.5 181.4C259.4 181.4 259.5 181.5 259.6 181.5Z" fill="#B3B6CF"/>
<path d="M261 186.1C261.11 186.1 261.2 186.01 261.2 185.9C261.2 185.79 261.11 185.7 261 185.7C260.89 185.7 260.8 185.79 260.8 185.9C260.8 186.01 260.89 186.1 261 186.1Z" fill="#B3B6CF"/>
<path d="M262.3 190.7C262.4 190.7 262.4 190.6 262.4 190.6L262.3 190.5L262.2 190.6L262.3 190.7Z" fill="#B3B6CF"/>
<path d="M263.5 195.4C263.6 195.4 263.6 195.3 263.6 195.3C263.6 195.2 263.5 195.2 263.5 195.2C263.4 195.2 263.4 195.3 263.4 195.3L263.5 195.4Z" fill="#B3B6CF"/>
<path d="M264.6 200.1C264.7 200.1 264.7 200 264.7 200C264.7 199.9 264.6 199.9 264.6 199.9C264.5 199.9 264.5 200 264.5 200L264.6 200.1Z" fill="#B3B6CF"/>
<path d="M265.6 204.8C265.7 204.8 265.8 204.7 265.8 204.6C265.8 204.5 265.7 204.4 265.6 204.4C265.5 204.4 265.4 204.5 265.4 204.6C265.5 204.7 265.5 204.8 265.6 204.8Z" fill="#B3B6CF"/>
<path d="M266.5 209.6C266.61 209.6 266.7 209.51 266.7 209.4C266.7 209.29 266.61 209.2 266.5 209.2C266.39 209.2 266.3 209.29 266.3 209.4C266.3 209.51 266.39 209.6 266.5 209.6Z" fill="#B3B6CF"/>
<path d="M267.3 214.2C267.4 214.2 267.4 214.1 267.4 214.1L267.3 214L267.2 214.1C267.2 214.1 267.2 214.2 267.3 214.2Z" fill="#B3B6CF"/>
<path d="M267.9 219C267.955 219 268 218.955 268 218.9C268 218.845 267.955 218.8 267.9 218.8C267.845 218.8 267.8 218.845 267.8 218.9C267.8 218.955 267.845 219 267.9 219Z" fill="#B3B6CF"/>
<path d="M268.4 223.8C268.5 223.8 268.5 223.7 268.5 223.7L268.4 223.6C268.3 223.6 268.3 223.7 268.3 223.7L268.4 223.8Z" fill="#B3B6CF"/>
<path d="M268.8 228.6C268.9 228.6 268.9 228.5 268.9 228.5C268.9 228.4 268.8 228.4 268.8 228.4C268.7 228.4 268.7 228.5 268.7 228.5C268.7 228.6 268.8 228.6 268.8 228.6Z" fill="#B3B6CF"/>
<path d="M269.1 233.4C269.155 233.4 269.2 233.355 269.2 233.3C269.2 233.245 269.155 233.2 269.1 233.2C269.045 233.2 269 233.245 269 233.3C269 233.355 269.045 233.4 269.1 233.4Z" fill="#B3B6CF"/>
<path d="M269.2 238.1C269.2 238.2 269.3 238.2 269.3 238.2C269.4 238.2 269.4 238.1 269.4 238.1C269.4 238 269.3 238 269.3 238C269.2 237.9 269.2 238 269.2 238.1Z" fill="#B3B6CF"/>
<path d="M274.7 243C274.755 243 274.8 242.955 274.8 242.9C274.8 242.845 274.755 242.8 274.7 242.8C274.645 242.8 274.6 242.845 274.6 242.9C274.6 242.955 274.645 243 274.7 243Z" fill="#B3B6CF"/>
<path d="M274.7 247.8C274.755 247.8 274.8 247.755 274.8 247.7C274.8 247.645 274.755 247.6 274.7 247.6C274.645 247.6 274.6 247.645 274.6 247.7C274.6 247.755 274.645 247.8 274.7 247.8Z" fill="#B3B6CF"/>
<path d="M274.6 252.5C274.6 252.5 274.5 252.4 274.6 252.5C274.5 252.4 274.4 252.5 274.4 252.5C274.4 252.5 274.4 252.6 274.6 252.5C274.5 252.6 274.6 252.6 274.6 252.5Z" fill="#B3B6CF"/>
<path d="M274.2 257.2C274.2 257.2 274.1 257.3 274.2 257.2C274.1 257.3 274.2 257.4 274.2 257.4C274.3 257.4 274.3 257.4 274.2 257.2C274.3 257.3 274.3 257.2 274.2 257.2Z" fill="#B3B6CF"/>
<path d="M273.8 262C273.8 262 273.7 262.1 273.8 262C273.7 262.1 273.8 262.2 273.8 262.2C273.9 262.2 273.9 262.2 273.8 262C273.9 262.1 273.9 262 273.8 262Z" fill="#B3B6CF"/>
<path d="M273.3 267C273.355 267 273.4 266.955 273.4 266.9C273.4 266.845 273.355 266.8 273.3 266.8C273.245 266.8 273.2 266.845 273.2 266.9C273.2 266.955 273.245 267 273.3 267Z" fill="#B3B6CF"/>
<path d="M272.7 271.8C272.755 271.8 272.8 271.755 272.8 271.7C272.8 271.645 272.755 271.6 272.7 271.6C272.645 271.6 272.6 271.645 272.6 271.7C272.6 271.755 272.645 271.8 272.7 271.8Z" fill="#B3B6CF"/>
<path d="M271.9 276.3C271.8 276.3 271.8 276.4 271.8 276.4C271.8 276.5 271.9 276.5 271.9 276.5L272 276.4C272.1 276.4 272 276.3 271.9 276.3Z" fill="#B3B6CF"/>
<path d="M271.1 281.1C271 281.1 271 281.2 271 281.2C271 281.3 271.1 281.3 271.1 281.3L271.2 281.2C271.2 281.1 271.2 281.1 271.1 281.1Z" fill="#B3B6CF"/>
<path d="M270.1 285.8C270 285.8 270 285.9 270 285.9C270 286 270.1 286 270.1 286C270.2 286 270.2 285.9 270.2 285.9C270.3 285.8 270.2 285.8 270.1 285.8Z" fill="#B3B6CF"/>
<path d="M269.1 290.7C269.155 290.7 269.2 290.655 269.2 290.6C269.2 290.545 269.155 290.5 269.1 290.5C269.045 290.5 269 290.545 269 290.6C269 290.655 269.045 290.7 269.1 290.7Z" fill="#B3B6CF"/>
<path d="M267.9 295.2C267.8 295.2 267.8 295.2 267.9 295.2C267.8 295.3 267.9 295.4 267.9 295.4C267.9 295.4 268 295.3 267.9 295.2C268 295.2 267.9 295.2 267.9 295.2Z" fill="#B3B6CF"/>
<path d="M266.6 299.8C266.5 299.8 266.5 299.9 266.5 299.9C266.5 300 266.6 300 266.6 300L266.7 299.9C266.7 299.8 266.7 299.8 266.6 299.8Z" fill="#B3B6CF"/>
<path d="M265.2 304.4C265.1 304.4 265.1 304.5 265.1 304.5L265.2 304.6L265.3 304.5C265.3 304.5 265.3 304.4 265.2 304.4Z" fill="#B3B6CF"/>
<path d="M263.7 308.9C263.6 308.9 263.6 309 263.6 309C263.6 309.1 263.7 309.1 263.7 309.1L263.8 309L263.7 308.9Z" fill="#B3B6CF"/>
<path d="M262.1 313.5C262 313.5 262 313.6 262.1 313.5C262 313.6 262.1 313.7 262.1 313.7C262.1 313.7 262.2 313.7 262.1 313.5C262.2 313.6 262.1 313.5 262.1 313.5Z" fill="#B3B6CF"/>
<path d="M260.5 318.1C260.5 318 260.4 318 260.4 318C260.3 318 260.3 318.1 260.3 318.1L260.4 318.2C260.4 318.2 260.5 318.2 260.5 318.1Z" fill="#B3B6CF"/>
<path d="M258.5 322.6C258.555 322.6 258.6 322.555 258.6 322.5C258.6 322.445 258.555 322.4 258.5 322.4C258.445 322.4 258.4 322.445 258.4 322.5C258.4 322.555 258.445 322.6 258.5 322.6Z" fill="#B3B6CF"/>
<path d="M258.5 163.3C258.6 163.3 258.6 163.3 258.5 163.3C258.6 163.2 258.5 163.1 258.5 163.1C258.5 163.2 258.4 163.2 258.5 163.3C258.4 163.3 258.5 163.3 258.5 163.3Z" fill="#B3B6CF"/>
<path d="M260.3 167.8C260.355 167.8 260.4 167.755 260.4 167.7C260.4 167.645 260.355 167.6 260.3 167.6C260.245 167.6 260.2 167.645 260.2 167.7C260.2 167.755 260.245 167.8 260.3 167.8Z" fill="#B3B6CF"/>
<path d="M262.1 172.3C262.155 172.3 262.2 172.255 262.2 172.2C262.2 172.145 262.155 172.1 262.1 172.1C262.045 172.1 262 172.145 262 172.2C262 172.255 262.045 172.3 262.1 172.3Z" fill="#B3B6CF"/>
<path d="M263.7 176.8C263.755 176.8 263.8 176.755 263.8 176.7C263.8 176.645 263.755 176.6 263.7 176.6C263.645 176.6 263.6 176.645 263.6 176.7C263.6 176.755 263.645 176.8 263.7 176.8Z" fill="#B3B6CF"/>
<path d="M265.2 181.4C265.2 181.4 265.3 181.4 265.2 181.4C265.3 181.3 265.2 181.2 265.2 181.2C265.1 181.2 265.1 181.3 265.2 181.4C265.1 181.4 265.1 181.4 265.2 181.4Z" fill="#B3B6CF"/>
<path d="M266.6 185.8C266.5 185.8 266.5 185.9 266.5 185.9L266.6 186L266.7 185.9C266.7 185.9 266.7 185.8 266.6 185.8Z" fill="#B3B6CF"/>
<path d="M267.9 190.6C267.9 190.6 268 190.6 267.9 190.6C268 190.5 267.9 190.5 267.9 190.5C267.9 190.5 267.8 190.5 267.9 190.6C267.8 190.6 267.8 190.6 267.9 190.6Z" fill="#B3B6CF"/>
<path d="M269.1 195.3C269.1 195.3 269.2 195.3 269.1 195.3C269.2 195.2 269.1 195.1 269.1 195.1C269 195.1 269 195.2 269.1 195.3C269 195.3 269 195.3 269.1 195.3Z" fill="#B3B6CF"/>
<path d="M270.1 200C270.2 200 270.2 200 270.2 199.9C270.2 199.8 270.2 199.8 270.1 199.8C270 199.8 270 199.8 270 199.9C270 200 270.1 200 270.1 200Z" fill="#B3B6CF"/>
<path d="M271.1 204.5C271 204.5 271 204.6 271 204.6L271.1 204.7L271.2 204.6C271.2 204.6 271.2 204.5 271.1 204.5Z" fill="#B3B6CF"/>
<path d="M271.9 209.2C271.8 209.2 271.8 209.3 271.8 209.3L271.9 209.4L272 209.3C272 209.3 272 209.2 271.9 209.2Z" fill="#B3B6CF"/>
<path d="M272.7 214.2C272.755 214.2 272.8 214.155 272.8 214.1C272.8 214.045 272.755 214 272.7 214C272.645 214 272.6 214.045 272.6 214.1C272.6 214.155 272.645 214.2 272.7 214.2Z" fill="#B3B6CF"/>
<path d="M273.3 219C273.3 219 273.4 218.9 273.3 219C273.4 218.9 273.3 218.9 273.3 218.9C273.3 218.8 273.2 218.8 273.3 219C273.2 218.9 273.3 219 273.3 219Z" fill="#B3B6CF"/>
<path d="M273.8 223.8C273.855 223.8 273.9 223.755 273.9 223.7C273.9 223.645 273.855 223.6 273.8 223.6C273.745 223.6 273.7 223.645 273.7 223.7C273.7 223.755 273.745 223.8 273.8 223.8Z" fill="#B3B6CF"/>
<path d="M274.2 228.4C274.2 228.4 274.1 228.4 274.2 228.4C274.1 228.5 274.2 228.6 274.2 228.6C274.3 228.6 274.3 228.5 274.2 228.4C274.3 228.4 274.3 228.4 274.2 228.4Z" fill="#B3B6CF"/>
<path d="M274.5 233.4C274.5 233.4 274.6 233.3 274.5 233.4C274.6 233.3 274.5 233.2 274.5 233.2C274.4 233.2 274.4 233.2 274.5 233.4C274.4 233.3 274.4 233.4 274.5 233.4Z" fill="#B3B6CF"/>
<path d="M274.6 238.1C274.6 238.1 274.6 238.2 274.6 238.1C274.7 238.2 274.8 238.1 274.8 238.1C274.8 238 274.7 238 274.6 238.1C274.6 238 274.6 238 274.6 238.1Z" fill="#B3B6CF"/>
<path d="M280 247.7C280 247.7 280 247.8 280 247.7C280.1 247.8 280.1 247.7 280 247.7C280.1 247.7 280.1 247.7 280 247.7Z" fill="#B3B6CF"/>
<path d="M279.9 252.5C279.8 252.5 279.8 252.5 279.9 252.5C279.8 252.5 279.8 252.6 279.9 252.5C279.9 252.6 279.9 252.5 279.9 252.5Z" fill="#B3B6CF"/>
<path d="M279.6 257.3C279.6 257.3 279.5 257.3 279.6 257.3C279.5 257.4 279.6 257.4 279.6 257.3C279.6 257.4 279.6 257.4 279.6 257.3Z" fill="#B3B6CF"/>
<path d="M277.4 276.4C277.3 276.4 277.3 276.4 277.4 276.4C277.3 276.5 277.4 276.5 277.4 276.5C277.4 276.5 277.5 276.5 277.4 276.4C277.5 276.4 277.4 276.4 277.4 276.4Z" fill="#B3B6CF"/>
<path d="M276.5 281.1C276.5 281.1 276.5 281.2 276.5 281.1C276.4 281.2 276.5 281.2 276.5 281.2C276.5 281.2 276.6 281.2 276.5 281.1C276.6 281.2 276.6 281.1 276.5 281.1Z" fill="#B3B6CF"/>
<path d="M275.6 285.9C275.5 286 275.6 286 275.6 286C275.6 286 275.7 285.9 275.6 285.9C275.7 285.9 275.6 285.9 275.6 285.9Z" fill="#B3B6CF"/>
<path d="M274.6 290.6C274.5 290.6 274.5 290.6 274.6 290.6C274.5 290.6 274.5 290.7 274.6 290.6C274.6 290.7 274.6 290.6 274.6 290.6Z" fill="#B3B6CF"/>
<path d="M273.4 295.2C273.4 295.2 273.4 295.3 273.4 295.2C273.4 295.3 273.4 295.3 273.4 295.2C273.4 295.3 273.5 295.3 273.4 295.2C273.5 295.3 273.4 295.2 273.4 295.2Z" fill="#B3B6CF"/>
<path d="M272.2 300C272.255 300 272.3 299.955 272.3 299.9C272.3 299.845 272.255 299.8 272.2 299.8C272.145 299.8 272.1 299.845 272.1 299.9C272.1 299.955 272.145 300 272.2 300Z" fill="#B3B6CF"/>
<path d="M270.8 304.5C270.8 304.5 270.7 304.5 270.8 304.5C270.7 304.6 270.8 304.6 270.8 304.6C270.8 304.6 270.9 304.6 270.8 304.5C270.9 304.5 270.8 304.5 270.8 304.5Z" fill="#B3B6CF"/>
<path d="M269.3 309.1C269.2 309.2 269.3 309.2 269.3 309.2C269.4 309.2 269.4 309.2 269.3 309.1C269.4 309.1 269.4 309.1 269.3 309.1Z" fill="#B3B6CF"/>
<path d="M267.7 313.6C267.7 313.6 267.7 313.7 267.7 313.6C267.7 313.7 267.7 313.7 267.7 313.6C267.8 313.7 267.8 313.7 267.7 313.6C267.8 313.7 267.8 313.6 267.7 313.6Z" fill="#B3B6CF"/>
<path d="M266.1 318.3C266.155 318.3 266.2 318.255 266.2 318.2C266.2 318.145 266.155 318.1 266.1 318.1C266.045 318.1 266 318.145 266 318.2C266 318.255 266.045 318.3 266.1 318.3Z" fill="#B3B6CF"/>
<path d="M264.3 322.8C264.355 322.8 264.4 322.755 264.4 322.7C264.4 322.645 264.355 322.6 264.3 322.6C264.245 322.6 264.2 322.645 264.2 322.7C264.2 322.755 264.245 322.8 264.3 322.8Z" fill="#B3B6CF"/>
<path d="M262.4 327C262.4 327 262.3 327.1 262.4 327C262.3 327.1 262.4 327.1 262.4 327C262.4 327.1 262.4 327.1 262.4 327C262.4 327.1 262.4 327 262.4 327Z" fill="#B3B6CF"/>
<path d="M260.4 331.4C260.4 331.4 260.3 331.4 260.4 331.4C260.3 331.5 260.4 331.5 260.4 331.5C260.4 331.5 260.5 331.5 260.4 331.4C260.5 331.4 260.4 331.4 260.4 331.4Z" fill="#B3B6CF"/>
<path d="M258.3 335.7C258.3 335.7 258.3 335.8 258.3 335.7C258.2 335.8 258.3 335.8 258.3 335.8C258.3 335.9 258.4 335.8 258.3 335.7C258.4 335.8 258.3 335.7 258.3 335.7Z" fill="#B3B6CF"/>
<path d="M258.3 150C258.3 150 258.4 150 258.3 150C258.4 150 258.3 149.9 258.3 150C258.3 149.9 258.3 150 258.3 150Z" fill="#B3B6CF"/>
<path d="M266.1 167.7C266.1 167.7 266.1 167.6 266.1 167.7C266.2 167.6 266.1 167.6 266.1 167.6C266 167.6 266 167.6 266.1 167.7C266 167.6 266 167.7 266.1 167.7Z" fill="#B3B6CF"/>
<path d="M267.8 172.1C267.7 172.1 267.7 172.1 267.8 172.1C267.7 172.1 267.7 172.2 267.8 172.1C267.8 172.2 267.8 172.1 267.8 172.1Z" fill="#B3B6CF"/>
<path d="M269.3 176.7C269.3 176.7 269.4 176.7 269.3 176.7C269.4 176.6 269.3 176.6 269.3 176.7C269.3 176.6 269.3 176.6 269.3 176.7Z" fill="#B3B6CF"/>
<path d="M270.8 181.3C270.8 181.2 270.8 181.2 270.8 181.3C270.8 181.2 270.7 181.2 270.8 181.3C270.7 181.3 270.8 181.3 270.8 181.3Z" fill="#B3B6CF"/>
<path d="M272.2 185.9C272.3 185.8 272.2 185.8 272.2 185.8C272.1 185.8 272.1 185.8 272.2 185.9C272.1 185.9 272.1 185.9 272.2 185.9Z" fill="#B3B6CF"/>
<path d="M274.6 195.2C274.6 195.2 274.6 195.1 274.6 195.2C274.5 195.1 274.5 195.2 274.6 195.2C274.5 195.2 274.5 195.2 274.6 195.2Z" fill="#B3B6CF"/>
<path d="M275.6 199.9C275.6 199.9 275.7 199.9 275.6 199.9C275.7 199.9 275.6 199.8 275.6 199.9C275.6 199.8 275.6 199.9 275.6 199.9Z" fill="#B3B6CF"/>
<path d="M276.5 204.7C276.6 204.7 276.6 204.6 276.5 204.7C276.6 204.6 276.5 204.6 276.5 204.6C276.5 204.5 276.5 204.6 276.5 204.7C276.5 204.6 276.5 204.7 276.5 204.7Z" fill="#B3B6CF"/>
<path d="M277.4 209.3C277.3 209.3 277.3 209.3 277.4 209.3C277.3 209.4 277.4 209.4 277.4 209.4C277.4 209.4 277.5 209.4 277.4 209.3C277.5 209.3 277.4 209.3 277.4 209.3Z" fill="#B3B6CF"/>
<path d="M279.6 228.4C279.6 228.4 279.5 228.4 279.6 228.4C279.5 228.5 279.6 228.5 279.6 228.4C279.6 228.5 279.6 228.5 279.6 228.4Z" fill="#B3B6CF"/>
<path d="M279.9 233.2C279.8 233.2 279.8 233.3 279.9 233.2C279.8 233.3 279.8 233.3 279.9 233.2C279.9 233.3 279.9 233.3 279.9 233.2C279.9 233.3 279.9 233.2 279.9 233.2Z" fill="#B3B6CF"/>
<path d="M280 238.1C280.1 238.1 280.1 238.1 280 238.1C280.1 238.1 280.1 238 280 238.1C280 238 280 238.1 280 238.1Z" fill="#B3B6CF"/>
<path d="M271.7 318.3C271.7 318.3 271.8 318.3 271.7 318.3C271.8 318.3 271.8 318.3 271.7 318.3C271.8 318.3 271.8 318.2 271.7 318.3C271.8 318.2 271.7 318.3 271.7 318.3Z" fill="#B3B6CF"/>
<path d="M350.2 111.1L175.6 285.7C173.8 287.5 170.9 287.5 169.2 285.7C167.4 283.9 167.4 281 169.2 279.3L343.8 104.7C345.6 102.9 348.5 102.9 350.2 104.7C352 106.5 352 109.4 350.2 111.1Z" fill="#649CC8"/>
<path d="M365.7 126.6L191.1 301.2C189.3 303 186.4 303 184.7 301.2C182.9 299.4 182.9 296.5 184.7 294.8L359.3 120.2C361.1 118.4 364 118.4 365.7 120.2C367.5 122 367.5 124.9 365.7 126.6Z" fill="#649CC8"/>
<path d="M381.2 142.1L206.6 316.7C204.8 318.5 201.9 318.5 200.2 316.7C198.4 314.9 198.4 312 200.2 310.3L374.8 135.7C376.6 133.9 379.5 133.9 381.2 135.7C383 137.5 383 140.4 381.2 142.1Z" fill="#649CC8"/>
<path d="M274 269.3C318.072 269.3 353.8 233.572 353.8 189.5C353.8 145.428 318.072 109.7 274 109.7C229.928 109.7 194.2 145.428 194.2 189.5C194.2 233.572 229.928 269.3 274 269.3Z" fill="#DD9F32"/>
<path d="M159.6 419.2C236.699 419.2 299.2 356.699 299.2 279.6C299.2 202.501 236.699 140 159.6 140C82.5011 140 20 202.501 20 279.6C20 356.699 82.5011 419.2 159.6 419.2Z" fill="#222A35"/>
<path d="M34.4 147.5C67 116.7 111 97.9 159.3 97.9C259.9 97.9 341.4 179.4 341.4 280C341.4 300.1 338.2 319.4 332.2 337.4" stroke="#649CC8" stroke-width="2" stroke-miterlimit="10" stroke-linecap="round" stroke-linejoin="round"/>
<path d="M311.2 235.6C315.3 249.7 317.5 264.6 317.5 280C317.5 367.4 246.6 438.3 159.2 438.3C125.7 438.3 94.6 427.9 69 410.1" stroke="#D36D2D" stroke-width="2" stroke-miterlimit="10" stroke-linecap="round" stroke-linejoin="round"/>
<path d="M1 280C1 227.9 26.2 181.7 65 152.9C91.3 133.3 124 121.8 159.3 121.8C209.8 121.8 254.8 145.5 283.8 182.3" stroke="#D36D2D" stroke-width="2" stroke-miterlimit="10" stroke-linecap="round" stroke-linejoin="round"/>
<path d="M387.9 201.5C375.2 201.5 364.9 211.8 364.9 224.5C364.9 237.2 375.2 247.5 387.9 247.5C400.6 247.5 410.9 237.2 410.9 224.5C410.9 211.8 400.6 201.5 387.9 201.5ZM387.9 241.9C378.3 241.9 370.6 234.1 370.6 224.6C370.6 215 378.4 207.3 387.9 207.3C397.5 207.3 405.2 215.1 405.2 224.6C405.2 234.1 397.4 241.9 387.9 241.9Z" fill="#78AE9F"/>
<path d="M327.9 336C318.6 336 311.1 343.5 311.1 352.8C311.1 362.1 318.6 369.6 327.9 369.6C337.2 369.6 344.7 362.1 344.7 352.8C344.7 343.5 337.1 336 327.9 336ZM327.9 365.3C320.9 365.3 315.3 359.7 315.3 352.7C315.3 345.7 320.9 340.1 327.9 340.1C334.9 340.1 340.5 345.7 340.5 352.7C340.5 359.7 334.8 365.3 327.9 365.3Z" fill="#78AE9F"/>
<path d="M244.16 98.7222C249.309 95.4987 250.87 88.7112 247.647 83.562C244.423 78.4127 237.636 76.8515 232.486 80.075C227.337 83.2984 225.776 90.0859 228.999 95.2352C232.223 100.384 239.01 101.946 244.16 98.7222Z" fill="#C13F20"/>
<path d="M356.45 196.704C367.063 192.308 372.103 180.14 367.707 169.527C363.311 158.914 351.143 153.874 340.53 158.27C329.917 162.666 324.877 174.834 329.273 185.447C333.669 196.061 345.837 201.101 356.45 196.704Z" fill="#D36D2D"/>
<path d="M315.4 98.1C314.2 98.1 313.2 97.1 313.2 95.9C313.2 94.7 314.2 93.7 315.4 93.7C316.6 93.7 317.6 94.7 317.6 95.9C317.6 97.2 316.6 98.1 315.4 98.1Z" fill="#3F4953"/>
<path d="M302.6 98.1C301.4 98.1 300.4 97.1 300.4 95.9C300.4 94.7 301.4 93.7 302.6 93.7C303.8 93.7 304.8 94.7 304.8 95.9C304.8 97.2 303.8 98.1 302.6 98.1Z" fill="#3F4953"/>
<path d="M289.9 98.1C288.7 98.1 287.7 97.1 287.7 95.9C287.7 94.7 288.7 93.7 289.9 93.7C291.1 93.7 292.1 94.7 292.1 95.9C292.1 97.2 291.1 98.1 289.9 98.1Z" fill="#3F4953"/>
<path d="M277.1 98.1C275.9 98.1 274.9 97.1 274.9 95.9C274.9 94.7 275.9 93.7 277.1 93.7C278.3 93.7 279.3 94.7 279.3 95.9C279.3 97.2 278.3 98.1 277.1 98.1Z" fill="#3F4953"/>
<path d="M128.21 307.182C126.402 307.182 125.558 306.248 125.759 304.462C126 302.391 127.406 291.226 127.406 291.226H113.342L111.011 307.994C110.931 308.482 111.293 308.888 111.775 308.888H116.356C116.356 308.888 122.223 308.888 128.089 308.888L128.331 307.223C128.21 307.182 128.331 307.182 128.21 307.182Z" fill="#EDDAB7"/>
<path d="M127.326 243.561C128.451 236.415 132.711 231.786 139.02 231.786C142.556 231.786 145.329 231.786 145.329 231.786C145.329 231.786 146.253 231.746 146.253 230.893C146.213 230 145.288 230 145.288 230C145.288 230 141.31 230 138.979 230C128.572 230 121.339 235.116 119.53 245.347C118.285 252.371 117.642 261.587 130.139 272.55C140.989 282.091 146.775 285.867 147.94 292.038C148.503 294.88 148.463 298.616 146.856 301.661L146.052 307.751C151.798 306.045 156.54 301.945 157.585 292.038C160.518 264.145 124.232 260.613 127.326 243.561Z" fill="#EDDAB7"/>
<path d="M205.042 240.637C202.149 237.836 196.925 234.547 188.366 234.547C181.776 234.547 175.467 235.562 172.091 237.105C170.283 235.887 166.626 234.547 159.232 234.547C142.275 234.547 138.859 241.328 138.296 245.388C138.136 246.606 137.774 249.854 136.89 256.228C138.136 257.203 139.421 258.218 140.748 259.233C143.681 261.506 146.896 263.942 149.749 266.784C151.597 253.67 152.883 244.292 153.044 243.317C153.406 241.571 154.45 239.541 159.674 239.541C161.965 239.541 163.492 239.988 164.255 240.84C164.858 241.49 165.059 242.464 164.898 243.845C164.657 246.159 158.951 291.835 156.5 311.364L155.656 317.617H169.841L175.065 279.533C177.878 259.233 180.007 244.373 180.208 243.358C180.57 241.612 181.615 239.582 186.839 239.582C189.129 239.582 190.656 240.028 191.42 240.881C192.023 241.531 192.223 242.505 192.063 243.886C191.781 246.728 183.061 316.196 182.981 316.886L182.901 317.657H197.005L206.81 246.322C207.212 244.129 206.489 242.058 205.042 240.637Z" fill="#EDDAB7"/>
<path d="M134.398 279.817C134.157 279.614 133.876 279.371 133.595 279.127C131.023 298.047 128.572 316.683 128.572 316.683C128.491 317.17 126.804 328.66 116.275 328.66C116.275 328.66 115.472 328.66 115.472 329.391C115.472 330 116.074 330.041 116.235 330.041C116.275 330.041 116.275 330.041 116.275 330.041C127.808 330.041 141.23 328.62 142.636 317.698C143.118 313.963 144.284 304.868 145.971 292.728C144.726 288.668 140.908 285.38 134.398 279.817Z" fill="#EDDAB7"/>
<path d="M134.398 279.817C134.157 279.614 133.876 279.371 133.595 279.127C131.023 298.047 128.572 316.683 128.572 316.683C128.491 317.17 126.804 328.66 116.275 328.66C116.275 328.66 115.472 328.66 115.472 329.391C115.472 330 116.074 330.041 116.235 330.041C116.275 330.041 116.275 330.041 116.275 330.041C127.808 330.041 141.23 328.62 142.636 317.698C143.118 313.963 144.284 304.868 145.971 292.728C144.726 288.668 140.908 285.38 134.398 279.817Z" fill="url(#paint0_linear)"/>
<defs>
<linearGradient id="paint0_linear" x1="137.011" y1="282" x2="134.511" y2="305" gradientUnits="userSpaceOnUse">
<stop stop-opacity="0.5"/>
<stop offset="1" stop-color="white" stop-opacity="0"/>
</linearGradient>
</defs>
</svg>
